<?xml version="1.0" encoding="UTF-8"?>
<svg id="Capa_2" data-name="Capa 2" xmlns="http://www.w3.org/2000/svg" viewBox="0 0 394.83 451.64">
  <defs>
    <style>
      .cls-1 {
        fill: white;
        stroke-width: 0px;
      }
    </style>
  </defs>
  <g id="Capa_1-2" data-name="Capa 1">
    <g>
      <path class="cls-1" d="m375.87,358.11c-10.47,0-18.96-8.49-18.96-18.96v-194.49c0-10.47,8.49-18.96,18.96-18.96s18.96,8.49,18.96,18.96v194.49c0,10.47-8.49,18.96-18.96,18.96Z"/>
      <path class="cls-1" d="m18.95,451.64c-3.03,0-6.11-.73-8.96-2.27-9.22-4.96-12.68-16.46-7.72-25.68L224.76,9.98c4.12-7.65,12.9-11.53,21.33-9.41,8.43,2.12,14.33,9.7,14.33,18.39v320.19c0,10.47-8.49,18.96-18.96,18.96s-18.96-8.49-18.96-18.96V94.25L35.67,441.65c-3.42,6.37-9.96,9.98-16.72,9.98Z"/>
      <path class="cls-1" d="m307.98,358.12c-1.71,0-3.44-.23-5.16-.72-9.6-2.71-15.38-12.35-13.44-21.97,1.89-17.48.78-202.76-.37-316.27-.11-10.47,8.3-19.05,18.77-19.15.07,0,.13,0,.2,0,10.38,0,18.85,8.36,18.96,18.77,0,.77.79,78.22,1.18,156.03.8,159.99-.69,165.27-1.89,169.5-2.36,8.36-9.96,13.81-18.24,13.81Zm-18.26-24.12s0,.02,0,.03c0,0,0-.02,0-.03Z"/>
      <path class="cls-1" d="m375.87,115.56c-10.47,0-18.96-8.49-18.96-18.96v-8.72c0-10.47,8.49-18.96,18.96-18.96s18.96,8.49,18.96,18.96v8.72c0,10.47-8.49,18.96-18.96,18.96Z"/>
    </g>
  </g>
</svg>